<mxfile host="app.diagrams.net" modified="2021-01-23T00:32:06.272Z" agent="5.0 (Windows NT 6.3; Win64; x64) AppleWebKit/537.36 (KHTML, like Gecko) Chrome/87.0.4280.141 Safari/537.36" etag="hDZKuD1K6S_aY8JjyfO0" version="14.2.6" type="github">
  <diagram id="R2lEEEUBdFMjLlhIrx00" name="Page-1">
    <mxGraphModel dx="496" dy="281" grid="1" gridSize="10" guides="1" tooltips="1" connect="1" arrows="1" fold="1" page="1" pageScale="1" pageWidth="850" pageHeight="1100" math="0" shadow="0" extFonts="Permanent Marker^https://fonts.googleapis.com/css?family=Permanent+Marker">
      <root>
        <mxCell id="0" />
        <mxCell id="1" parent="0" />
        <mxCell id="CrmonsyU1eTdluvtc0Tg-1" value="Admin" style="rounded=0;whiteSpace=wrap;html=1;" vertex="1" parent="1">
          <mxGeometry x="10" y="200" width="100" height="40" as="geometry" />
        </mxCell>
        <mxCell id="CrmonsyU1eTdluvtc0Tg-2" value="2.1&lt;br&gt;Produk" style="ellipse;whiteSpace=wrap;html=1;aspect=fixed;" vertex="1" parent="1">
          <mxGeometry x="320" y="40" width="70" height="70" as="geometry" />
        </mxCell>
        <mxCell id="CrmonsyU1eTdluvtc0Tg-3" value="2.5&lt;br&gt;Member" style="ellipse;whiteSpace=wrap;html=1;aspect=fixed;" vertex="1" parent="1">
          <mxGeometry x="320" y="720" width="70" height="70" as="geometry" />
        </mxCell>
        <mxCell id="CrmonsyU1eTdluvtc0Tg-4" value="2.4&lt;br&gt;Artikel" style="ellipse;whiteSpace=wrap;html=1;aspect=fixed;" vertex="1" parent="1">
          <mxGeometry x="320" y="550" width="70" height="70" as="geometry" />
        </mxCell>
        <mxCell id="CrmonsyU1eTdluvtc0Tg-5" value="2.3&lt;br&gt;Kategori" style="ellipse;whiteSpace=wrap;html=1;aspect=fixed;" vertex="1" parent="1">
          <mxGeometry x="320" y="360" width="70" height="70" as="geometry" />
        </mxCell>
        <mxCell id="CrmonsyU1eTdluvtc0Tg-6" value="2.2&lt;br&gt;Stok" style="ellipse;whiteSpace=wrap;html=1;aspect=fixed;" vertex="1" parent="1">
          <mxGeometry x="320" y="190" width="70" height="70" as="geometry" />
        </mxCell>
        <mxCell id="CrmonsyU1eTdluvtc0Tg-7" value="" style="endArrow=classic;html=1;exitX=0.986;exitY=0.371;exitDx=0;exitDy=0;exitPerimeter=0;" edge="1" parent="1" source="CrmonsyU1eTdluvtc0Tg-6">
          <mxGeometry width="50" height="50" relative="1" as="geometry">
            <mxPoint x="400" y="270" as="sourcePoint" />
            <mxPoint x="530" y="216" as="targetPoint" />
          </mxGeometry>
        </mxCell>
        <mxCell id="CrmonsyU1eTdluvtc0Tg-10" value="Data Stok" style="edgeLabel;html=1;align=center;verticalAlign=middle;resizable=0;points=[];" vertex="1" connectable="0" parent="CrmonsyU1eTdluvtc0Tg-7">
          <mxGeometry x="-0.3761" y="-1" relative="1" as="geometry">
            <mxPoint x="26.98" y="3.02" as="offset" />
          </mxGeometry>
        </mxCell>
        <mxCell id="CrmonsyU1eTdluvtc0Tg-8" value="" style="endArrow=classic;html=1;entryX=0.971;entryY=0.714;entryDx=0;entryDy=0;entryPerimeter=0;" edge="1" parent="1" target="CrmonsyU1eTdluvtc0Tg-6">
          <mxGeometry width="50" height="50" relative="1" as="geometry">
            <mxPoint x="530" y="240" as="sourcePoint" />
            <mxPoint x="450" y="220" as="targetPoint" />
          </mxGeometry>
        </mxCell>
        <mxCell id="CrmonsyU1eTdluvtc0Tg-11" value="Data Stok" style="edgeLabel;html=1;align=center;verticalAlign=middle;resizable=0;points=[];" vertex="1" connectable="0" parent="CrmonsyU1eTdluvtc0Tg-8">
          <mxGeometry x="0.549" relative="1" as="geometry">
            <mxPoint x="40" y="0.02" as="offset" />
          </mxGeometry>
        </mxCell>
        <mxCell id="CrmonsyU1eTdluvtc0Tg-9" value="Stok" style="shape=partialRectangle;whiteSpace=wrap;html=1;left=0;right=0;fillColor=none;" vertex="1" parent="1">
          <mxGeometry x="540" y="220" width="60" height="20" as="geometry" />
        </mxCell>
        <mxCell id="CrmonsyU1eTdluvtc0Tg-12" value="" style="endArrow=classic;html=1;exitX=0.986;exitY=0.371;exitDx=0;exitDy=0;exitPerimeter=0;" edge="1" parent="1">
          <mxGeometry width="50" height="50" relative="1" as="geometry">
            <mxPoint x="389.02" y="385.48" as="sourcePoint" />
            <mxPoint x="530" y="385.51" as="targetPoint" />
          </mxGeometry>
        </mxCell>
        <mxCell id="CrmonsyU1eTdluvtc0Tg-13" value="Data Kategori" style="edgeLabel;html=1;align=center;verticalAlign=middle;resizable=0;points=[];" vertex="1" connectable="0" parent="CrmonsyU1eTdluvtc0Tg-12">
          <mxGeometry x="-0.3761" y="-1" relative="1" as="geometry">
            <mxPoint x="26.98" y="-6.98" as="offset" />
          </mxGeometry>
        </mxCell>
        <mxCell id="CrmonsyU1eTdluvtc0Tg-14" value="" style="endArrow=classic;html=1;entryX=0.971;entryY=0.714;entryDx=0;entryDy=0;entryPerimeter=0;" edge="1" parent="1">
          <mxGeometry width="50" height="50" relative="1" as="geometry">
            <mxPoint x="530" y="409.51" as="sourcePoint" />
            <mxPoint x="387.97" y="409.49" as="targetPoint" />
          </mxGeometry>
        </mxCell>
        <mxCell id="CrmonsyU1eTdluvtc0Tg-15" value="Data Kategori" style="edgeLabel;html=1;align=center;verticalAlign=middle;resizable=0;points=[];" vertex="1" connectable="0" parent="CrmonsyU1eTdluvtc0Tg-14">
          <mxGeometry x="0.549" relative="1" as="geometry">
            <mxPoint x="40" y="0.02" as="offset" />
          </mxGeometry>
        </mxCell>
        <mxCell id="CrmonsyU1eTdluvtc0Tg-16" value="Kategori" style="shape=partialRectangle;whiteSpace=wrap;html=1;left=0;right=0;fillColor=none;" vertex="1" parent="1">
          <mxGeometry x="540" y="390" width="60" height="19.51" as="geometry" />
        </mxCell>
        <mxCell id="CrmonsyU1eTdluvtc0Tg-17" value="" style="endArrow=classic;html=1;exitX=0.986;exitY=0.371;exitDx=0;exitDy=0;exitPerimeter=0;" edge="1" parent="1">
          <mxGeometry width="50" height="50" relative="1" as="geometry">
            <mxPoint x="389.02" y="65.48000000000002" as="sourcePoint" />
            <mxPoint x="530" y="65.50999999999999" as="targetPoint" />
          </mxGeometry>
        </mxCell>
        <mxCell id="CrmonsyU1eTdluvtc0Tg-18" value="Data Produk" style="edgeLabel;html=1;align=center;verticalAlign=middle;resizable=0;points=[];" vertex="1" connectable="0" parent="CrmonsyU1eTdluvtc0Tg-17">
          <mxGeometry x="-0.3761" y="-1" relative="1" as="geometry">
            <mxPoint x="26.98" y="-6.98" as="offset" />
          </mxGeometry>
        </mxCell>
        <mxCell id="CrmonsyU1eTdluvtc0Tg-19" value="" style="endArrow=classic;html=1;entryX=0.971;entryY=0.714;entryDx=0;entryDy=0;entryPerimeter=0;" edge="1" parent="1">
          <mxGeometry width="50" height="50" relative="1" as="geometry">
            <mxPoint x="530" y="89.50999999999999" as="sourcePoint" />
            <mxPoint x="387.97" y="89.49000000000001" as="targetPoint" />
          </mxGeometry>
        </mxCell>
        <mxCell id="CrmonsyU1eTdluvtc0Tg-20" value="Data Produk" style="edgeLabel;html=1;align=center;verticalAlign=middle;resizable=0;points=[];" vertex="1" connectable="0" parent="CrmonsyU1eTdluvtc0Tg-19">
          <mxGeometry x="0.549" relative="1" as="geometry">
            <mxPoint x="40" y="0.02" as="offset" />
          </mxGeometry>
        </mxCell>
        <mxCell id="CrmonsyU1eTdluvtc0Tg-21" value="Produk" style="shape=partialRectangle;whiteSpace=wrap;html=1;left=0;right=0;fillColor=none;" vertex="1" parent="1">
          <mxGeometry x="540" y="70" width="60" height="19.51" as="geometry" />
        </mxCell>
        <mxCell id="CrmonsyU1eTdluvtc0Tg-22" value="" style="endArrow=classic;html=1;exitX=0.986;exitY=0.371;exitDx=0;exitDy=0;exitPerimeter=0;" edge="1" parent="1">
          <mxGeometry width="50" height="50" relative="1" as="geometry">
            <mxPoint x="391.04999999999995" y="575.48" as="sourcePoint" />
            <mxPoint x="532.03" y="575.51" as="targetPoint" />
          </mxGeometry>
        </mxCell>
        <mxCell id="CrmonsyU1eTdluvtc0Tg-23" value="Data Artikel" style="edgeLabel;html=1;align=center;verticalAlign=middle;resizable=0;points=[];" vertex="1" connectable="0" parent="CrmonsyU1eTdluvtc0Tg-22">
          <mxGeometry x="-0.3761" y="-1" relative="1" as="geometry">
            <mxPoint x="26.98" y="-6.98" as="offset" />
          </mxGeometry>
        </mxCell>
        <mxCell id="CrmonsyU1eTdluvtc0Tg-24" value="" style="endArrow=classic;html=1;entryX=0.971;entryY=0.714;entryDx=0;entryDy=0;entryPerimeter=0;" edge="1" parent="1">
          <mxGeometry width="50" height="50" relative="1" as="geometry">
            <mxPoint x="532.03" y="599.51" as="sourcePoint" />
            <mxPoint x="390" y="599.49" as="targetPoint" />
          </mxGeometry>
        </mxCell>
        <mxCell id="CrmonsyU1eTdluvtc0Tg-25" value="Data Artikel" style="edgeLabel;html=1;align=center;verticalAlign=middle;resizable=0;points=[];" vertex="1" connectable="0" parent="CrmonsyU1eTdluvtc0Tg-24">
          <mxGeometry x="0.549" relative="1" as="geometry">
            <mxPoint x="40" y="0.02" as="offset" />
          </mxGeometry>
        </mxCell>
        <mxCell id="CrmonsyU1eTdluvtc0Tg-26" value="Artikel" style="shape=partialRectangle;whiteSpace=wrap;html=1;left=0;right=0;fillColor=none;" vertex="1" parent="1">
          <mxGeometry x="542.03" y="580" width="60" height="19.51" as="geometry" />
        </mxCell>
        <mxCell id="CrmonsyU1eTdluvtc0Tg-27" value="" style="endArrow=classic;html=1;exitX=0.986;exitY=0.371;exitDx=0;exitDy=0;exitPerimeter=0;" edge="1" parent="1">
          <mxGeometry width="50" height="50" relative="1" as="geometry">
            <mxPoint x="391.04999999999995" y="745.48" as="sourcePoint" />
            <mxPoint x="532.03" y="745.51" as="targetPoint" />
          </mxGeometry>
        </mxCell>
        <mxCell id="CrmonsyU1eTdluvtc0Tg-28" value="Data Stok" style="edgeLabel;html=1;align=center;verticalAlign=middle;resizable=0;points=[];" vertex="1" connectable="0" parent="CrmonsyU1eTdluvtc0Tg-27">
          <mxGeometry x="-0.3761" y="-1" relative="1" as="geometry">
            <mxPoint x="26.98" y="-6.98" as="offset" />
          </mxGeometry>
        </mxCell>
        <mxCell id="CrmonsyU1eTdluvtc0Tg-29" value="" style="endArrow=classic;html=1;entryX=0.971;entryY=0.714;entryDx=0;entryDy=0;entryPerimeter=0;" edge="1" parent="1">
          <mxGeometry width="50" height="50" relative="1" as="geometry">
            <mxPoint x="532.03" y="769.51" as="sourcePoint" />
            <mxPoint x="390" y="769.49" as="targetPoint" />
          </mxGeometry>
        </mxCell>
        <mxCell id="CrmonsyU1eTdluvtc0Tg-30" value="Data Stok" style="edgeLabel;html=1;align=center;verticalAlign=middle;resizable=0;points=[];" vertex="1" connectable="0" parent="CrmonsyU1eTdluvtc0Tg-29">
          <mxGeometry x="0.549" relative="1" as="geometry">
            <mxPoint x="40" y="0.02" as="offset" />
          </mxGeometry>
        </mxCell>
        <mxCell id="CrmonsyU1eTdluvtc0Tg-31" value="Stok" style="shape=partialRectangle;whiteSpace=wrap;html=1;left=0;right=0;fillColor=none;" vertex="1" parent="1">
          <mxGeometry x="542.03" y="750" width="60" height="19.51" as="geometry" />
        </mxCell>
      </root>
    </mxGraphModel>
  </diagram>
</mxfile>
